<svg width="16" height="15" viewBox="0 0 16 15" fill="none" xmlns="http://www.w3.org/2000/svg">
<path d="M14.7062 12.7277C13.7031 11.5 12.9949 10.875 12.9949 7.49023C12.9949 4.39063 11.4121 3.28633 10.1093 2.75C9.93628 2.67891 9.77339 2.51562 9.72065 2.33789C9.49214 1.56016 8.85151 0.875 7.99995 0.875C7.14839 0.875 6.50737 1.56055 6.2812 2.33867C6.22846 2.51836 6.06557 2.67891 5.89253 2.75C4.58823 3.28711 3.00698 4.3875 3.00698 7.49023C3.00503 10.875 2.29682 11.5 1.2937 12.7277C0.878074 13.2363 1.24214 14 1.96909 14H14.0347C14.7578 14 15.1195 13.234 14.7062 12.7277Z" stroke="#252B5C" stroke-width="1.25" stroke-linecap="round" stroke-linejoin="round"/>
</svg>
